<svg width="15" height="14" viewBox="0 0 15 14" fill="none" xmlns="http://www.w3.org/2000/svg">
<path fill-rule="evenodd" clip-rule="evenodd" d="M6.64546 0.604934C6.89606 0.387194 7.2163 0.266322 7.54827 0.264179C7.88024 0.262036 8.20202 0.378763 8.45541 0.59325L12.8837 4.33902L14.6213 5.71104C14.6929 5.76763 14.7527 5.83778 14.7973 5.91748C14.8418 5.99718 14.8702 6.08488 14.8809 6.17556C14.8915 6.26624 14.8842 6.35814 14.8594 6.44599C14.8345 6.53385 14.7926 6.61595 14.736 6.6876C14.6794 6.75926 14.6093 6.81907 14.5296 6.86361C14.4499 6.90816 14.3622 6.93657 14.2715 6.94723C14.1808 6.95788 14.0889 6.95057 14.0011 6.92571C13.9132 6.90085 13.8311 6.85893 13.7594 6.80234L13.1481 6.31972L13.1836 11.8239C13.186 12.1926 13.0419 12.5472 12.7828 12.8095C12.5238 13.0719 12.1712 13.2207 11.8025 13.223L9.02223 13.241L8.9998 9.76567C8.99742 9.39698 8.84867 9.04435 8.58629 8.78533C8.32391 8.52631 7.96938 8.38213 7.60069 8.38451C7.23201 8.38689 6.87937 8.53564 6.62035 8.79802C6.36134 9.0604 6.21716 9.41493 6.21954 9.78362L6.24197 13.2589L3.46171 13.2769C3.09303 13.2793 2.7385 13.1351 2.47611 12.8761C2.21373 12.6171 2.06499 12.2644 2.06261 11.8957L2.02707 6.39082L1.42203 6.88129C1.35162 6.94221 1.26968 6.98836 1.18109 7.017C1.0925 7.04564 0.999061 7.05619 0.906313 7.04803C0.813566 7.03986 0.723404 7.01315 0.64118 6.96947C0.558956 6.92579 0.486345 6.86604 0.427657 6.79376C0.36897 6.72147 0.325402 6.63814 0.29954 6.5487C0.273678 6.45926 0.266049 6.36553 0.277106 6.27308C0.288163 6.18064 0.31768 6.09135 0.363905 6.01053C0.410131 5.92971 0.472123 5.859 0.546201 5.8026L2.2659 4.40826L6.64546 0.604934V0.604934Z" fill="white"/>
</svg>
