<svg width="153" height="153" viewBox="0 0 153 153" fill="none" xmlns="http://www.w3.org/2000/svg">
<path d="M66.5122 32.0379C66.5045 32.0245 66.4976 32.0106 66.4918 31.9962L66.501 31.9869C66.5059 32.0036 66.5097 32.0207 66.5122 32.0379Z" fill="#3FBDF1"/>
<path d="M66.5495 32.2192C66.535 32.1694 66.5245 32.1185 66.5181 32.0671C66.5432 32.1136 66.5541 32.1665 66.5495 32.2192Z" fill="#3FBDF1"/>
<path d="M73.693 84.3488C73.6557 84.4354 73.6244 84.5205 73.5871 84.6101C70.834 91.4392 68.9349 99.6007 68.5448 109.356C60.6564 90.3835 47.7144 81.2586 36.2109 76.9112C36.376 70.5534 37.188 59.494 40.7519 52.6794C40.7519 52.6794 46.8706 54.0689 54.5994 60.0438C60.6971 64.758 67.8058 72.3356 73.693 84.3488Z" fill="#3FBDF1"/>
<path d="M74.8375 84.2384L74.575 84.181C74.6122 84.0898 74.645 84.0032 74.6808 83.9151C74.733 84.0208 74.7868 84.1402 74.8375 84.2384Z" fill="#3FBDF1"/>
<path d="M74.8375 84.2384L74.575 84.181C74.6122 84.0898 74.645 84.0032 74.6808 83.9151C74.733 84.0208 74.7868 84.1402 74.8375 84.2384Z" fill="#3FBDF1"/>
<path d="M70.0982 127.934C70.0239 127.934 69.9467 127.935 69.8739 127.935C40.8995 128.122 16.7563 106.32 12.2709 77.6612C11.9657 75.2145 11.9123 73.7526 11.9123 73.7526C11.9123 73.7526 22.3606 72.6244 34.5133 77.3176C45.2913 81.4803 57.4125 90.2136 64.8017 108.368L64.8018 108.381C64.8464 108.49 64.891 108.597 64.9312 108.711C67.1396 114.205 68.9111 120.556 70.0888 127.893C70.0935 127.907 70.0981 127.92 70.0982 127.934Z" fill="#3FBDF1"/>
<path d="M137.2 73.8226C134.641 106.332 108.448 132.014 76.3108 132.352C76.3195 130.876 76.674 114.195 86.6436 99.0091C91.0994 92.1568 97.108 86.4515 104.182 82.3563C104.383 82.2384 104.577 82.1265 104.786 82.0145C105.032 81.872 105.284 81.7355 105.541 81.599C105.606 81.5607 105.675 81.5254 105.746 81.4871C105.992 81.3552 106.238 81.2232 106.491 81.0958C106.62 81.0283 106.75 80.9593 106.886 80.8963C107.155 80.7552 107.43 80.617 107.705 80.4849C107.98 80.3528 108.222 80.2361 108.483 80.1147L108.575 80.0702C108.771 79.9765 108.966 79.8888 109.166 79.8012C109.414 79.6829 109.66 79.5752 109.911 79.4675C110.642 79.1446 111.396 78.8367 112.166 78.5438L112.432 78.4406C112.757 78.3127 113.083 78.1909 113.414 78.0721C120.066 75.6652 127.928 74.1128 137.2 73.8226Z" fill="#71DDB1"/>
<path d="M93.3617 59.0314C86.8283 64.0468 79.483 71.9329 74.6811 83.9151C68.7969 71.6639 61.7068 63.9332 55.6207 59.125C59.1536 52.4349 67.1711 38.8317 74.5034 32.4459C74.5034 32.4459 85.7374 43.4002 93.3617 59.0314Z" fill="#71DDB1"/>
<path d="M112.744 76.8081C112.42 76.9238 112.1 77.0441 111.779 77.1689L111.519 77.2706C110.763 77.5588 110.026 77.8621 109.308 78.1789C109.062 78.2851 108.82 78.3897 108.578 78.5049C108.382 78.5925 108.19 78.6786 107.998 78.7692L107.906 78.8123C107.651 78.9321 107.395 79.0519 107.151 79.1778C106.906 79.3036 106.612 79.4404 106.346 79.58C106.214 79.6414 106.086 79.709 105.959 79.7764C105.711 79.9008 105.47 80.0296 105.228 80.16C105.16 80.1983 105.091 80.2306 105.027 80.2689C104.781 80.4038 104.535 80.5372 104.292 80.6767C104.091 80.7871 103.899 80.8959 103.703 81.0108C96.7615 85.0276 90.8643 90.6241 86.4902 97.3463C76.7126 112.241 76.3637 128.606 76.3548 130.053L76.3318 130.011C75.1004 122.339 73.2498 115.699 70.9397 109.956L71.1147 109.368L70.8057 109.611C70.8057 109.611 70.8057 109.611 70.8056 109.602C71.1866 99.8438 73.0432 91.675 75.7388 84.8493L75.9952 84.9037L75.8416 84.588C80.5526 72.8337 87.7579 65.0985 94.1708 60.1793C101.724 54.3876 108.182 52.4866 108.182 52.4866C111.661 56.7312 112.533 69.7785 112.744 76.8081Z" fill="#3FBDF1"/>
<path d="M69.254 111.05L69.2539 111.035C69.2539 111.035 69.254 111.044 69.254 111.05Z" stroke="#CCDDE2" stroke-width="0.585007" stroke-miterlimit="10"/>
<path d="M74.6803 84.0636C74.6415 84.1563 74.6072 84.2474 74.5684 84.3447C71.6626 91.7066 69.6602 100.516 69.2478 111.039C60.9178 90.5713 47.2514 80.7236 35.1002 76.0334C35.2726 69.174 36.129 57.2446 39.8941 49.8923C39.8941 49.8923 46.3544 51.3916 54.5165 57.8396C60.9561 62.9258 68.4626 71.1024 74.6803 84.0636Z" stroke="#CCDDE2" stroke-width="0.585007" stroke-miterlimit="10"/>
<path d="M74.8464 84.405L74.5687 84.3447C74.6075 84.2474 74.6417 84.1563 74.6805 84.0636C74.7358 84.1754 74.7881 84.2917 74.8464 84.405Z" stroke="#CCDDE2" stroke-width="0.585007" stroke-miterlimit="10"/>
<path d="M69.254 111.05L69.2539 111.035C69.2539 111.035 69.254 111.044 69.254 111.05Z" stroke="#CCDDE2" stroke-width="0.585007" stroke-miterlimit="10"/>
<path d="M74.8464 84.405L74.5687 84.3447C74.6075 84.2474 74.6417 84.1563 74.6805 84.0636C74.7358 84.1754 74.7881 84.2917 74.8464 84.405Z" stroke="#CCDDE2" stroke-width="0.585007" stroke-miterlimit="10"/>
<path opacity="0.9" d="M24.8693 109.183C24.3302 108.533 23.8001 107.869 23.2897 107.193C16.4185 98.1736 11.8624 87.6076 10.02 76.4196C9.56135 73.6783 9.61879 72.0142 9.61879 72.0142C9.61879 72.0142 21.3921 70.7441 35.1019 76.0334C47.2546 80.7251 60.9164 90.5652 69.2479 111.039L69.248 111.056C69.2988 111.178 69.3511 111.301 69.3929 111.428C71.8877 117.624 73.8826 124.782 75.2119 133.059C75.212 133.074 75.2121 133.089 75.2122 133.106C75.1258 133.107 75.044 133.107 74.9576 133.108C58.0519 133.193 42.5908 126.549 30.8948 115.609C29.6752 114.469 28.4871 113.278 27.3517 112.045" stroke="#CCDDE2" stroke-width="0.585007" stroke-miterlimit="10"/>
<path d="M69.254 111.05L69.2539 111.035C69.2539 111.035 69.254 111.044 69.254 111.05Z" stroke="#CCDDE2" stroke-width="0.585007" stroke-miterlimit="10"/>
<path opacity="0.9" d="M139.652 71.1792C136.945 105.571 109.239 132.736 75.2393 133.094C75.2489 131.533 75.6244 113.886 86.1688 97.8211C90.8841 90.5727 97.2414 84.5377 104.725 80.2056C104.938 80.0815 105.145 79.9635 105.361 79.8454C105.622 79.6922 105.888 79.5511 106.153 79.4054C106.221 79.364 106.295 79.3287 106.369 79.2873C106.631 79.1477 106.892 79.0082 107.158 78.8746C107.295 78.801 107.432 78.7213 107.576 78.6613C107.861 78.5079 108.151 78.3681 108.443 78.2284C108.735 78.0886 108.988 77.9642 109.265 77.8351L109.363 77.7875C109.57 77.6892 109.777 77.597 109.989 77.5032C110.25 77.3787 110.51 77.2649 110.776 77.1511C111.549 76.8097 112.347 76.4833 113.161 76.172L113.442 76.0626C113.786 75.9285 114.131 75.7975 114.482 75.674C121.528 73.1222 129.846 71.4865 139.652 71.1792Z" stroke="#CCDDE2" stroke-width="0.585007" stroke-miterlimit="10"/>
<path d="M94.4409 57.741C87.5305 63.0452 79.7593 71.3871 74.68 84.0636C68.4624 71.1024 60.9559 62.9258 54.5163 57.8396C58.2589 50.7587 66.7366 36.3722 74.4877 29.6169C74.4922 29.6169 86.3667 41.205 94.4409 57.741Z" stroke="#CCDDE2" stroke-width="0.585007" stroke-miterlimit="10"/>
<path d="M29.2902 95.7154C29.2917 95.7052 29.2916 95.6949 29.29 95.6847C29.2899 95.674 29.2899 95.6632 29.2897 95.6433C29.2872 95.626 29.2871 95.6084 29.2894 95.5911C29.294 95.6279 29.3014 95.6643 29.3116 95.6999C29.3093 95.7039 29.3063 95.7073 29.3026 95.71C29.2989 95.7126 29.2947 95.7145 29.2902 95.7154Z" fill="white"/>
<path d="M29.4096 105.509C29.1807 106.265 28.8868 107 28.5313 107.705C28.4295 107.904 28.3292 108.099 28.2184 108.293C27.8402 109.014 27.3748 109.686 26.8327 110.293C26.7355 110.262 26.6382 110.222 26.5516 110.188C26.5319 110.188 26.5152 110.173 26.5 110.167C24.7298 109.408 23.3946 107.973 22.9902 106.353C22.6294 104.926 22.9361 103.378 22.2486 102.042C21.4016 100.396 19.1402 99.3767 18.8463 97.5117C18.5805 95.7678 20.1415 94.156 19.8743 92.4485C19.5709 90.5154 17.1861 89.3837 16.7345 87.4986C16.4466 86.3276 16.6879 84.9729 16.5786 83.7643C16.4525 82.4136 16.2148 81.0755 15.8678 79.764C16.0314 79.7523 16.195 79.7467 16.3586 79.7396C19.6918 79.662 23.0026 81.5151 24.1015 84.1492C24.9881 86.277 24.56 88.7436 25.7306 90.7363C25.8015 90.865 25.8808 90.989 25.9678 91.1075C26.1211 91.3174 26.2858 91.5187 26.4612 91.7105L26.8318 92.0914C26.8928 92.1517 26.9599 92.2073 27.0209 92.2736C27.0819 92.3398 27.149 92.3955 27.2115 92.4618C27.7909 93.0081 28.3824 93.5604 28.7685 94.217C28.8041 94.274 28.8354 94.3336 28.8621 94.3952C28.8982 94.4548 28.929 94.5175 28.9542 94.5825C28.9875 94.6489 29.0173 94.717 29.0434 94.7865C29.0742 94.8621 29.1004 94.9377 29.1252 95.0209C29.1624 95.1434 29.1995 95.2598 29.2245 95.3824C29.2247 95.4127 29.2249 95.4384 29.2357 95.4641C29.2464 95.4898 29.2358 95.4838 29.2359 95.4944C29.2381 95.5044 29.2382 95.5148 29.2361 95.5247C29.2384 95.5422 29.242 95.5594 29.247 95.5762L29.2471 95.5868C29.2477 95.6058 29.2509 95.6246 29.2565 95.6428C29.2566 95.6625 29.2567 95.6731 29.2568 95.6837C29.2584 95.6938 29.2585 95.704 29.257 95.714L29.257 95.7246L28.9014 101.421C29.1618 102.797 29.7995 104.166 29.4096 105.509Z" fill="white"/>
<path d="M32.2842 91.6683C32.5323 90.4317 32.5437 89.1361 33.1179 87.9535C34.1858 85.7736 37.3364 84.1759 40.6496 84.0529L40.7102 84.0525C41.0132 84.0506 41.3163 84.0486 41.6194 84.0618C41.2839 85.1937 41.0574 86.3551 40.9433 87.5302C40.8379 88.5764 41.1091 89.7445 40.8262 90.751C40.3715 92.3859 37.9035 93.3928 37.6143 95.063C37.3571 96.5436 39.004 97.9165 38.744 99.4229C38.4635 101.037 36.1222 101.945 35.2647 103.385C34.5722 104.549 34.908 105.877 34.5538 107.11C34.1386 108.516 32.7527 109.775 30.922 110.444C30.804 110.486 30.6982 110.527 30.5803 110.565C30.5183 110.58 30.4472 110.606 30.3867 110.622C30.3654 110.607 30.3455 110.586 30.3197 110.566C29.7239 110.065 29.0548 109.218 28.4988 108.305L28.536 107.723C28.8915 107.018 29.1854 106.283 29.4143 105.528C29.8042 104.184 29.1665 102.815 28.9333 101.439L29.289 95.7426L29.4111 95.6403C29.4557 95.6071 29.498 95.5709 29.5377 95.5319C30.1406 95.0386 30.7922 94.5646 31.2568 94.0055C31.8342 93.3184 32.1006 92.5666 32.2683 91.779" fill="white"/>
<path d="M32.2696 91.7513C32.2694 91.7252 32.28 91.7006 32.2844 91.6683L32.2696 91.7513Z" fill="white"/>
<path d="M32.2846 91.6638C32.2848 91.6956 32.2744 91.7199 32.27 91.7457C32.1023 92.5332 31.8359 93.285 31.2585 93.9722C30.7939 94.5313 30.1439 95.0052 29.5394 95.4986C29.4997 95.5375 29.4574 95.5737 29.4128 95.607L29.2908 95.7138C29.2928 95.7074 29.2928 95.7005 29.2906 95.6941C29.2859 95.6767 29.2802 95.6595 29.2736 95.6427C29.2711 95.6256 29.271 95.6083 29.2733 95.5912L29.2732 95.5806C29.2683 95.5638 29.2646 95.5465 29.2623 95.5291C29.2645 95.5191 29.2644 95.5088 29.2621 95.4988C29.2643 95.4941 29.2655 95.4889 29.2655 95.4837C29.2654 95.4784 29.2642 95.4732 29.2619 95.4685C29.2579 95.441 29.2522 95.4137 29.2447 95.3868C29.2197 95.2642 29.1826 95.1478 29.1454 95.0253C29.1206 94.9482 29.0944 94.8665 29.0636 94.791C29.0375 94.7214 29.0077 94.6533 28.9744 94.587C28.9524 94.5206 28.9214 94.4575 28.8822 94.3997C28.8556 94.338 28.8243 94.2784 28.7887 94.2215C28.4026 93.5648 27.8111 93.0155 27.2317 92.4662C27.1692 92.3999 27.1036 92.3337 27.0411 92.278C26.9786 92.2223 26.913 92.1561 26.852 92.0959L26.4813 91.7149C26.3059 91.5231 26.1412 91.3218 25.988 91.1119C25.988 91.1119 26.2893 85.2109 29.2931 83.4065C32.1293 81.688 32.2782 90.6683 32.2846 91.6638Z" fill="white"/>
<path d="M32.2696 91.7513C32.2694 91.7252 32.28 91.7006 32.2844 91.6683L32.2696 91.7513Z" fill="white"/>
<path d="M29.2857 95.6954L29.2858 95.72C29.2873 95.7098 29.2872 95.6994 29.2856 95.6893C29.2855 95.6785 29.2855 95.6678 29.2853 95.6478C29.2828 95.6305 29.2827 95.613 29.285 95.5956C29.2829 95.6289 29.2831 95.6622 29.2857 95.6954Z" fill="white"/>
<path d="M39.4287 85.9489C34.0313 91.8328 31.5562 104.183 30.6018 110.554C30.5234 111.092 30.4569 111.584 30.3931 112.027" fill="white"/>
<path d="M40.121 115.547L37.7161 130.316C37.6595 130.719 37.4621 131.09 37.1589 131.362C36.8556 131.634 36.466 131.79 36.0588 131.803L22.9884 131.887C22.5776 131.879 22.1831 131.725 21.8758 131.452C21.5685 131.179 21.3685 130.806 21.3119 130.399L18.9106 115.684L40.121 115.547Z" fill="white"/>
<path d="M42.4847 113.887C42.4647 114.324 42.2806 114.737 41.9691 115.044C41.6575 115.351 41.2415 115.529 40.8043 115.543L18.2621 115.689C17.829 115.681 17.4145 115.512 17.0999 115.214C16.7854 114.916 16.5935 114.512 16.5621 114.08C16.4599 113.029 17.2373 112.105 18.2389 112.099L40.7811 111.953C41.7721 111.955 42.5582 112.836 42.4847 113.887Z" fill="white"/>
<path d="M29.3012 95.7256C29.3006 95.6921 29.2947 95.659 29.2837 95.6274L29.3012 95.7256Z" fill="white"/>
<path d="M18.041 81.9168C23.3017 88.6593 25.8486 102.929 26.8615 110.298C26.9474 110.937 27.0209 111.522 27.0864 112.046" fill="white"/>
<path d="M29.7173 89.0422C29.0772 91.0571 29.0585 93.0878 29.1456 94.3737C29.1691 94.7888 29.2158 95.2024 29.2854 95.6123" fill="white"/>
<path d="M29.2902 95.7154C29.2917 95.7052 29.2916 95.6949 29.29 95.6847C29.2899 95.674 29.2899 95.6632 29.2897 95.6433C29.2872 95.626 29.2871 95.6084 29.2894 95.5911C29.294 95.6279 29.3014 95.6643 29.3116 95.6999C29.3093 95.7039 29.3063 95.7073 29.3026 95.71C29.2989 95.7126 29.2947 95.7145 29.2902 95.7154Z" stroke="#CCDDE2" stroke-width="0.585007" stroke-miterlimit="10"/>
<path d="M29.4096 105.509C29.1807 106.265 28.8868 107 28.5313 107.705C28.4295 107.904 28.3292 108.099 28.2184 108.293C27.8402 109.014 27.3748 109.686 26.8327 110.293C26.7355 110.262 26.6382 110.222 26.5516 110.188C26.5319 110.188 26.5152 110.173 26.5 110.167C24.7298 109.408 23.3946 107.973 22.9902 106.353C22.6294 104.926 22.9361 103.378 22.2486 102.042C21.4016 100.396 19.1402 99.3767 18.8463 97.5117C18.5805 95.7678 20.1415 94.156 19.8743 92.4485C19.5709 90.5154 17.1861 89.3837 16.7345 87.4986C16.4466 86.3276 16.6879 84.9729 16.5786 83.7643C16.4525 82.4136 16.2148 81.0755 15.8678 79.764C16.0314 79.7523 16.195 79.7467 16.3586 79.7396C19.6918 79.662 23.0026 81.5151 24.1015 84.1492C24.9881 86.277 24.56 88.7436 25.7306 90.7363C25.8015 90.865 25.8808 90.989 25.9678 91.1075C26.1211 91.3174 26.2858 91.5187 26.4612 91.7105L26.8318 92.0914C26.8928 92.1517 26.9599 92.2073 27.0209 92.2736C27.0819 92.3398 27.149 92.3955 27.2115 92.4618C27.7909 93.0081 28.3824 93.5604 28.7685 94.217C28.8041 94.274 28.8354 94.3336 28.8621 94.3952C28.8982 94.4548 28.929 94.5175 28.9542 94.5825C28.9875 94.6489 29.0173 94.717 29.0434 94.7865C29.0742 94.8621 29.1004 94.9377 29.1252 95.0209C29.1624 95.1434 29.1995 95.2598 29.2245 95.3824C29.2247 95.4127 29.2249 95.4384 29.2357 95.4641C29.2464 95.4898 29.2358 95.4838 29.2359 95.4944C29.2381 95.5044 29.2382 95.5148 29.2361 95.5247C29.2384 95.5422 29.242 95.5594 29.247 95.5762L29.2471 95.5868C29.2477 95.6058 29.2509 95.6246 29.2565 95.6428V95.6428C29.2566 95.6625 29.2567 95.6731 29.2568 95.6837C29.2584 95.6938 29.2585 95.704 29.257 95.714L29.257 95.7246L28.9014 101.421C29.1618 102.797 29.7995 104.166 29.4096 105.509Z" stroke="#CCDDE2" stroke-width="0.585007" stroke-miterlimit="10"/>
<path d="M32.2842 91.6683C32.5323 90.4317 32.5437 89.1361 33.1179 87.9535C34.1858 85.7736 37.3364 84.1759 40.6496 84.0529L40.7102 84.0525C41.0132 84.0506 41.3163 84.0486 41.6194 84.0618C41.2839 85.1937 41.0574 86.3551 40.9433 87.5302C40.8379 88.5764 41.1091 89.7445 40.8262 90.751C40.3715 92.3859 37.9035 93.3928 37.6143 95.063C37.3571 96.5436 39.004 97.9165 38.744 99.4229C38.4635 101.037 36.1222 101.945 35.2647 103.385C34.5722 104.549 34.908 105.877 34.5538 107.11C34.1386 108.516 32.7527 109.775 30.922 110.444C30.804 110.486 30.6982 110.527 30.5803 110.565C30.5183 110.58 30.4472 110.606 30.3867 110.622C30.3654 110.607 30.3455 110.586 30.3197 110.566C29.7239 110.065 29.0548 109.218 28.4988 108.305L28.536 107.723C28.8915 107.018 29.1854 106.283 29.4143 105.528C29.8042 104.184 29.1665 102.815 28.9333 101.439L29.289 95.7426L29.4111 95.6403C29.4557 95.6071 29.498 95.5709 29.5377 95.5319C30.1406 95.0386 30.7922 94.5646 31.2568 94.0055C31.8342 93.3184 32.1006 92.5666 32.2683 91.779" stroke="#CCDDE2" stroke-width="0.585007" stroke-miterlimit="10"/>
<path d="M32.2696 91.7513C32.2694 91.7252 32.28 91.7006 32.2844 91.6683" stroke="#CCDDE2" stroke-width="0.585007" stroke-miterlimit="10"/>
<path d="M32.2846 91.6638C32.2848 91.6956 32.2744 91.7199 32.27 91.7457C32.1023 92.5332 31.8359 93.285 31.2585 93.9722C30.7939 94.5313 30.1438 95.0052 29.5394 95.4986C29.4997 95.5375 29.4574 95.5737 29.4128 95.607L29.2908 95.7138C29.2928 95.7074 29.2928 95.7005 29.2906 95.6941C29.2859 95.6767 29.2802 95.6595 29.2736 95.6427V95.6427C29.2711 95.6256 29.271 95.6083 29.2733 95.5912L29.2732 95.5806C29.2683 95.5638 29.2646 95.5465 29.2623 95.5291C29.2645 95.5191 29.2644 95.5088 29.2621 95.4988C29.2643 95.4941 29.2655 95.4889 29.2655 95.4837C29.2654 95.4784 29.2642 95.4732 29.2619 95.4685C29.2579 95.441 29.2522 95.4137 29.2447 95.3868C29.2197 95.2642 29.1826 95.1478 29.1454 95.0253C29.1206 94.9482 29.0944 94.8665 29.0636 94.791C29.0375 94.7214 29.0077 94.6533 28.9744 94.587C28.9524 94.5206 28.9214 94.4575 28.8822 94.3997C28.8556 94.338 28.8243 94.2784 28.7887 94.2215C28.4026 93.5648 27.8111 93.0155 27.2317 92.4662C27.1692 92.3999 27.1036 92.3337 27.0411 92.278C26.9786 92.2223 26.913 92.1561 26.852 92.0959L26.4813 91.7149C26.3059 91.5231 26.1412 91.3218 25.988 91.1119C25.988 91.1119 26.2893 85.2109 29.2931 83.4065C32.1293 81.688 32.2782 90.6683 32.2846 91.6638Z" stroke="#CCDDE2" stroke-width="0.585007" stroke-miterlimit="10"/>
<path d="M32.2696 91.7513C32.2694 91.7252 32.28 91.7006 32.2844 91.6683" stroke="#CCDDE2" stroke-width="0.585007" stroke-miterlimit="10"/>
<path d="M29.2857 95.6954L29.2858 95.72C29.2873 95.7098 29.2872 95.6994 29.2856 95.6893C29.2855 95.6785 29.2855 95.6678 29.2853 95.6478C29.2828 95.6305 29.2827 95.613 29.285 95.5956C29.2829 95.6289 29.2831 95.6622 29.2857 95.6954V95.6954Z" stroke="#CCDDE2" stroke-width="0.585007" stroke-miterlimit="10"/>
<path d="M39.4287 85.9489C34.0313 91.8328 31.5562 104.183 30.6018 110.554C30.5234 111.092 30.4569 111.584 30.3931 112.027" stroke="#CCDDE2" stroke-width="0.585007" stroke-miterlimit="10"/>
<path d="M40.121 115.547L37.7161 130.316C37.6595 130.719 37.4621 131.09 37.1589 131.362C36.8556 131.634 36.466 131.79 36.0588 131.803L22.9884 131.887C22.5776 131.879 22.1831 131.725 21.8758 131.452C21.5685 131.179 21.3685 130.806 21.3119 130.399L18.9106 115.684L40.121 115.547Z" stroke="#CCDDE2" stroke-width="0.585007" stroke-miterlimit="10"/>
<path d="M42.4847 113.887C42.4647 114.324 42.2806 114.737 41.9691 115.044C41.6575 115.351 41.2415 115.529 40.8043 115.543L18.2621 115.689C17.829 115.681 17.4145 115.512 17.0999 115.214C16.7854 114.916 16.5935 114.512 16.5621 114.08V114.08C16.4599 113.029 17.2373 112.105 18.2389 112.099L40.7811 111.953C41.7721 111.955 42.5582 112.836 42.4847 113.887Z" stroke="#CCDDE2" stroke-width="0.585007" stroke-miterlimit="10"/>
<path d="M29.3012 95.7256C29.3006 95.6921 29.2947 95.659 29.2837 95.6274L29.3012 95.7256Z" stroke="#CCDDE2" stroke-width="0.585007" stroke-miterlimit="10"/>
<path d="M18.041 81.9168C23.3017 88.6593 25.8486 102.929 26.8615 110.298C26.9474 110.937 27.0209 111.522 27.0864 112.046" stroke="#CCDDE2" stroke-width="0.585007" stroke-miterlimit="10"/>
<path d="M29.7173 89.0422C29.0772 91.0571 29.0585 93.0878 29.1456 94.3737C29.1691 94.7888 29.2158 95.2024 29.2854 95.6123" stroke="#CCDDE2" stroke-width="0.585007" stroke-miterlimit="10"/>
<path d="M114.482 75.674C114.131 75.7975 113.786 75.9285 113.442 76.0626L113.161 76.172C112.347 76.4803 111.549 76.8097 110.776 77.1511C110.51 77.265 110.25 77.3788 109.989 77.5032C109.777 77.597 109.57 77.6892 109.363 77.7876L109.265 77.8352C108.988 77.9642 108.713 78.0933 108.443 78.2284C108.173 78.3635 107.861 78.5125 107.576 78.6613C107.425 78.729 107.295 78.801 107.158 78.8746C106.892 79.0082 106.631 79.1478 106.369 79.2873C106.295 79.3287 106.218 79.3641 106.153 79.4054C105.888 79.5511 105.622 79.6952 105.361 79.8454C105.145 79.9635 104.938 80.0815 104.725 80.2056C97.2414 84.5378 90.8841 90.5727 86.1688 97.8211C75.6244 113.886 75.2489 131.531 75.2393 133.094L75.2132 133.048C73.8854 124.776 71.889 117.614 69.3987 111.417L69.5871 110.784L69.2539 111.047C69.2539 111.047 69.2539 111.047 69.2539 111.036C69.6663 100.513 71.6687 91.7035 74.5745 84.3416L74.8522 84.4019C74.7969 84.2886 74.7416 84.1723 74.6863 84.0605C79.7656 71.384 87.5368 63.0421 94.4472 57.7379C102.59 51.4907 109.557 49.4395 109.557 49.4395C113.315 54.0218 114.254 68.0929 114.482 75.674Z" stroke="#CCDDE2" stroke-width="0.585007" stroke-miterlimit="10"/>
<path d="M115.328 130.095C114.24 129.884 113.173 129.63 112.129 129.334C107.845 128.112 102.864 126.01 101.132 121.536C100.698 120.38 100.556 119.135 100.718 117.911C100.879 116.687 101.339 115.521 102.058 114.517C102.819 113.447 103.894 112.639 105.134 112.205C107.834 111.313 110.835 112.656 112.854 114.658C114.873 116.66 116.181 119.246 117.768 121.606C116.326 118.433 114.862 115.168 114.644 111.69C114.475 108.979 115.193 106.033 117.049 103.983C118.758 102.096 122.773 100.602 125.152 101.961C126.722 102.86 127.359 104.789 127.638 106.576C128.406 111.464 127.493 116.441 126.583 121.305C127.198 118.704 127.86 116.078 129.133 113.727C130.406 111.376 132.367 109.294 134.89 108.409C136.658 107.792 138.761 107.843 140.252 108.981C141.642 110.032 142.272 111.836 142.474 113.571C142.811 116.482 142.145 119.439 140.984 122.127C136.65 132.161 124.448 131.855 115.328 130.095Z" fill="white"/>
<path d="M125.222 125.078C125.222 125.078 132.014 126.918 134.348 117.477L125.222 125.078Z" fill="white"/>
<path d="M122.101 109.01C120.244 113.295 122.211 126.103 122.211 126.103L122.101 109.01Z" fill="white"/>
<path d="M115.919 124.847C115.635 124.8 112.913 124.438 110.588 123.387C108.787 122.575 107.223 121.348 107.211 119.539" fill="white"/>
<path d="M111.107 119.515C111.107 119.515 108.477 122.622 110.588 123.389L111.107 119.515Z" fill="white"/>
<path d="M109.391 126.207C109.765 125.681 111.734 126.72 113 124.237L109.391 126.207Z" fill="white"/>
<path d="M121.299 114.672C120.626 114.173 118.875 114.687 118.591 110.666L121.299 114.672Z" fill="white"/>
<path d="M121.616 118.44C121.616 118.44 124.543 117.36 124.528 115.065L121.616 118.44Z" fill="white"/>
<path d="M127.964 125.115C127.964 125.115 129.469 121.155 130.086 119.391L127.964 125.115Z" fill="white"/>
<path d="M132.692 121.31C132.692 121.31 134.381 122.631 136.378 120.481L132.692 121.31Z" fill="white"/>
<path d="M132.679 119.376C132.679 119.376 131.591 118.912 132.077 116.198L132.679 119.376Z" fill="white"/>
<path d="M115.328 130.095C114.23 129.951 113.172 129.632 112.129 129.334C107.845 128.112 102.864 126.01 101.132 121.536C100.698 120.38 100.556 119.135 100.718 117.911C100.879 116.687 101.339 115.521 102.058 114.517C102.819 113.447 103.894 112.639 105.134 112.205C107.833 111.313 110.835 112.656 112.854 114.658C114.873 116.66 116.181 119.246 117.768 121.606C116.326 118.433 114.862 115.168 114.644 111.69C114.475 108.979 115.193 106.033 117.049 103.983C118.758 102.096 122.773 100.602 125.152 101.961C126.722 102.86 127.359 104.789 127.638 106.576C128.406 111.464 127.493 116.441 126.583 121.305C127.198 118.704 127.86 116.078 129.133 113.727C130.406 111.376 132.367 109.294 134.89 108.409C136.658 107.792 138.761 107.843 140.252 108.981C141.642 110.032 142.272 111.836 142.474 113.571C142.811 116.482 142.187 119.459 140.984 122.127C136.577 131.898 124.279 131.241 115.328 130.095Z" stroke="#CCDDE2" stroke-width="0.585007" stroke-miterlimit="10"/>
<path d="M125.222 125.078C125.222 125.078 132.014 126.918 134.348 117.477" stroke="#CCDDE2" stroke-width="0.585007" stroke-miterlimit="10"/>
<path d="M122.101 109.01C120.244 113.295 122.211 126.103 122.211 126.103" stroke="#CCDDE2" stroke-width="0.585007" stroke-miterlimit="10"/>
<path d="M115.919 124.847C115.635 124.8 112.913 124.438 110.588 123.387C108.787 122.575 107.223 121.348 107.211 119.539" stroke="#CCDDE2" stroke-width="0.585007" stroke-miterlimit="10"/>
<path d="M111.107 119.515C111.107 119.515 108.477 122.622 110.588 123.389" stroke="#CCDDE2" stroke-width="0.585007" stroke-miterlimit="10"/>
<path d="M109.391 126.207C109.765 125.681 111.734 126.72 113 124.237" stroke="#CCDDE2" stroke-width="0.585007" stroke-miterlimit="10"/>
<path d="M121.299 114.672C120.626 114.173 118.875 114.687 118.591 110.666" stroke="#CCDDE2" stroke-width="0.585007" stroke-miterlimit="10"/>
<path d="M121.616 118.44C121.616 118.44 124.543 117.36 124.528 115.065" stroke="#CCDDE2" stroke-width="0.585007" stroke-miterlimit="10"/>
<path d="M127.964 125.115C127.964 125.115 129.469 121.155 130.086 119.391" stroke="#CCDDE2" stroke-width="0.585007" stroke-miterlimit="10"/>
<path d="M132.692 121.31C132.692 121.31 134.381 122.631 136.378 120.481" stroke="#CCDDE2" stroke-width="0.585007" stroke-miterlimit="10"/>
<path d="M132.679 119.376C132.679 119.376 131.591 118.912 132.077 116.198" stroke="#CCDDE2" stroke-width="0.585007" stroke-miterlimit="10"/>
<path d="M132.99 95.8005C134.352 96.9591 135.57 98.2776 136.617 99.7275C138.541 102.323 139.641 105.437 139.772 108.666" stroke="#CCDDE2" stroke-width="0.585007" stroke-miterlimit="10"/>
<path d="M85.3887 42.6857C88.1055 41.0256 90.9402 39.5481 93.958 38.4982C101.483 35.8736 109.894 36.3906 115.906 42.0054C121.116 46.8677 123.612 54.125 124.157 61.0919C124.158 61.1934 124.175 61.3009 124.18 61.4085C124.432 64.9981 124.27 68.9647 124.27 72.9333" stroke="#CCDDE2" stroke-width="0.585007" stroke-miterlimit="10"/>
<path d="M26.1333 73.3471C26.7885 68.9803 25.9271 64.8824 25.4436 60.3957C24.1983 48.7056 27.8279 34.6853 41.2916 32.8482C48.6071 31.8463 54.5675 34.5429 59.5517 39.7568C60.6715 40.9269 61.7926 42.3032 62.9786 43.632" stroke="#CCDDE2" stroke-width="0.585007" stroke-miterlimit="10"/>
<path d="M21.1276 112.014C21.1276 112.014 10.8935 107.585 11.8602 99.1342C12.1297 96.7489 13.2387 94.6097 14.6443 92.6414" stroke="#CCDDE2" stroke-width="0.585007" stroke-miterlimit="10"/>
<path d="M113.337 117.049C112.947 116.772 112.541 116.509 112.12 116.26C107.912 113.807 102.195 112.881 97.4052 112.624C97.1126 112.605 96.8246 112.592 96.5397 112.581C96.1622 112.567 95.7923 112.471 95.4559 112.299C95.1074 112.126 94.8039 111.874 94.5693 111.564C94.3284 110.642 94.0403 109.734 93.7062 108.842L93.0138 105.816C92.7573 104.941 92.5546 104.051 92.4072 103.151C91.6808 98.5993 91.129 92.9401 90.9335 90.8215C90.9554 90.8307 90.9783 90.8371 91.0018 90.8407L93.0866 91.494C93.0941 91.4933 93.1017 91.4933 93.1093 91.4939L93.8486 91.7058C96.7146 92.4995 99.7203 93.0892 102.701 93.1351C105.511 93.1761 108.59 92.6956 110.98 91.1255C111.181 90.9969 111.376 90.8592 111.565 90.7125C113.408 89.3066 114.68 87.1587 115.395 84.9827C116.71 80.9578 116.972 76.6631 116.156 72.5083C115.924 71.3644 115.602 70.2406 115.193 69.1475C114.114 66.2376 112.564 63.5139 111.23 60.6874C110.923 60.0287 110.485 59.3391 110.428 58.606C110.358 57.7321 110.801 56.8883 110.937 56.0373C111.094 55.0148 111.164 53.9807 111.144 52.9463C111.134 51.7192 110.891 50.5052 110.429 49.3687C110.03 48.4136 109.323 46.812 108.085 46.8791C107.68 45.6118 107.007 44.1463 105.837 43.9887C105.534 43.9442 105.225 44.0214 104.978 44.2034C104.891 44.0811 104.798 43.9638 104.698 43.8521C104.207 43.3068 103.281 42.8187 102.542 43.1084C101.076 43.6997 101.762 45.7182 102.5 47.2485C102.125 47.1701 101.74 47.1471 101.357 47.1801C100.502 47.2614 99.5131 47.6132 99.1865 48.4397C99.0092 48.8954 99.0781 49.7148 99.5404 49.9694C100.127 50.2853 100.844 50.0685 101.431 50.3648C102.086 50.6969 102.348 51.5969 102.257 52.2793C102.24 52.5468 102.135 52.8011 101.959 53.0026C100.932 54.0426 100.204 51.1955 99.8089 50.7283C99.2714 50.0908 98.4903 50.2125 97.9377 50.7571C96.846 51.8248 97.3371 53.9582 97.806 55.2372C98.3151 56.637 98.9747 58.1087 100.02 59.1945C101.757 60.9941 101.965 63.8794 102.436 66.2114C102.631 67.1754 102.817 68.1485 102.969 69.1204C103.269 71.0065 103.448 72.9056 103.309 74.8127C103.274 75.3362 103.131 75.8468 102.889 76.3125C102.648 76.7782 102.312 77.1888 101.904 77.5187C101.496 77.8486 101.025 78.0906 100.519 78.2296C100.013 78.3685 99.4835 78.4013 98.9643 78.326C97.7281 78.146 96.2812 77.9311 94.7401 77.7001C94.7401 77.7001 94.7522 77.6879 94.7597 77.6848C92.6565 76.9847 90.7997 76.9088 88.952 76.8238C83.7359 76.0513 79.052 75.3239 79.052 75.3239C78.9453 75.3049 78.8486 75.2494 78.7784 75.1669C78.7082 75.0844 78.6689 74.9801 78.6672 74.8718L78.5662 69.087C78.9251 69.5211 79.6983 69.5767 80.1694 69.3206C80.3567 69.2236 80.5103 69.0722 80.6099 68.8863C80.7096 68.7004 80.7507 68.4887 80.7279 68.279C81.0343 68.2745 81.3351 68.1951 81.6037 68.0476C81.6834 68.0024 81.7596 67.9512 81.8316 67.8946C81.9803 67.7595 82.0998 67.5955 82.1828 67.4126C82.2658 67.2296 82.3105 67.0316 82.3141 66.8308C82.3199 66.7198 82.3136 66.6086 82.2953 66.499C82.2951 66.4581 82.2827 66.4188 82.2748 66.3749C82.2576 66.2902 82.2374 66.2069 82.2126 66.1177C82.2001 66.0663 82.1846 66.0148 82.1676 65.9665C82.1273 65.8152 82.0824 65.6639 82.048 65.5126C82.0657 65.5148 82.0835 65.5147 82.1011 65.5123C82.2506 65.5029 82.3989 65.4806 82.5446 65.4458C82.6831 65.4118 82.8182 65.3653 82.9483 65.3068C83.0213 65.2739 83.0924 65.237 83.1613 65.1963C83.1731 65.1921 83.184 65.1853 83.193 65.1764C83.3097 65.1038 83.4202 65.0215 83.5232 64.9303C83.5581 64.9013 83.5913 64.8702 83.6226 64.8373C83.6814 64.7813 83.7372 64.7223 83.7897 64.6604C83.8568 64.5807 83.9195 64.4973 83.9775 64.4107C84.0058 64.3739 84.0309 64.3347 84.0525 64.2935C84.2606 63.9548 84.4118 63.5842 84.5 63.1966C84.5073 63.1602 84.5162 63.1237 84.5236 63.0888C84.8173 61.6444 84.3521 60.0002 83.0819 59.4705C82.8281 59.3646 81.9304 59.2658 81.928 58.8855C81.9282 58.8583 81.9321 58.8312 81.9396 58.8051C81.9381 58.7996 81.9381 58.7939 81.9395 58.7884C81.963 58.7318 81.9971 58.6801 82.04 58.6362C82.0596 58.6119 82.0867 58.5874 82.1108 58.563C82.1635 58.5157 82.2223 58.4714 82.2781 58.4256C82.3354 58.3872 82.3903 58.3454 82.4424 58.3003C82.4646 58.2816 82.4857 58.2617 82.5057 58.2408C82.5448 58.1966 82.5854 58.1524 82.6215 58.1082C82.6574 58.0646 82.6905 58.0189 82.7206 57.9712C82.7521 57.9225 82.7837 57.8738 82.8121 57.8191C82.8434 57.7711 82.87 57.7201 82.8914 57.667C82.9365 57.5768 82.9734 57.4827 83.0017 57.386C83.0518 57.2269 83.0828 57.0624 83.094 56.8959C83.0936 56.8368 83.0933 56.7762 83.0929 56.7156C83.0843 55.3852 81.9905 54.0149 80.6182 53.8783C80.3964 53.8554 80.1722 53.8833 79.9626 53.9598C79.8596 53.9962 79.7587 54.0383 79.6604 54.086L79.5093 54.1582C79.4066 54.2073 79.3024 54.2595 79.1951 54.3117C79.1047 54.3555 79.0065 54.3809 78.9062 54.3863C78.8832 54.3857 78.8604 54.3828 78.838 54.3777L78.7939 54.3658C78.7621 54.359 78.7329 54.3429 78.7103 54.3194C78.6836 54.3002 78.6612 54.2756 78.6447 54.2471C78.6308 54.2194 78.621 54.1899 78.6153 54.1594C78.6142 54.1576 78.6137 54.1555 78.6137 54.1534C78.6136 54.1512 78.6142 54.1491 78.6152 54.1473C78.6074 54.112 78.6036 54.0759 78.6039 54.0398C78.6033 53.9649 78.6135 53.8903 78.6343 53.8183C78.6761 53.6616 78.6965 53.4998 78.6949 53.3376C78.6943 53.2788 78.6898 53.2201 78.6816 53.1619C78.6734 53.081 78.6608 53.0007 78.6437 52.9212C78.4915 52.336 78.1358 51.8242 77.6403 51.4776C76.2445 50.5046 73.6398 50.5169 72.9333 52.3414C72.9183 52.3687 72.9109 52.3976 72.899 52.4249C72.8059 52.3179 72.7127 52.2064 72.6196 52.0949C72.5553 52.0541 72.4883 52.0181 72.4188 51.9871C71.454 51.5736 70.0778 51.7628 69.3815 52.5885C68.8041 53.2742 68.6199 54.3285 69.1416 55.0979C68.8495 54.7255 68.4547 54.4468 68.006 54.2961C68.0605 54.4456 68.1326 54.5881 68.2209 54.7205C68.1795 54.6649 68.1351 54.6116 68.0881 54.5607C68.0514 54.5201 68.0148 54.4839 67.9782 54.4493C67.9416 54.4147 67.8898 54.365 67.8456 54.3289C67.8014 54.2929 67.7527 54.2538 67.7055 54.2177C66.7997 53.5629 65.4719 53.5033 64.6362 54.3345C63.9828 54.9842 63.8522 55.8776 64.0911 56.7413C64.33 57.605 64.8931 58.2029 65.3176 58.9457C63.8971 59.3125 62.7693 60.8972 63.2274 62.3732C63.323 62.6785 63.4889 62.9571 63.7117 63.1867C63.9345 63.4164 64.208 63.5906 64.5103 63.6954C64.6185 63.7217 64.7285 63.7398 64.8395 63.7493C64.8765 63.7529 64.9125 63.764 64.945 63.7821C64.9776 63.8002 65.0061 63.8248 65.0288 63.8543C65.0514 63.8839 65.0677 63.9178 65.0767 63.954C65.0857 63.9901 65.0871 64.0277 65.0809 64.0644C65.0589 64.164 65.0479 64.2657 65.048 64.3677C65.0505 64.6118 65.1158 64.8512 65.2377 65.0627C65.3595 65.2743 65.5338 65.4508 65.7438 65.5755C65.7749 65.5926 65.8023 65.6159 65.8241 65.644C65.8459 65.6721 65.8617 65.7043 65.8706 65.7388C65.8795 65.7732 65.8812 65.8091 65.8757 65.8442C65.8702 65.8794 65.8576 65.913 65.8386 65.9431C65.6299 66.244 65.5084 66.5968 65.4875 66.9625C65.4665 67.3281 65.5471 67.6925 65.7201 68.0153C66.1944 68.9502 67.3467 69.7565 68.4265 69.4282C68.7739 69.3205 69.0737 69.0965 69.2755 68.7939C69.2971 68.771 69.3158 68.7454 69.3311 68.7178C69.335 68.7087 69.3406 68.7004 69.3476 68.6934C69.5019 68.4598 69.6036 68.1955 69.6456 67.9187C69.9149 68.3396 70.2159 68.7393 70.5459 69.1145L70.7443 69.333L70.1696 73.028L70.086 73.6937C70.055 73.9241 69.9419 74.1355 69.7675 74.2892C69.5932 74.4429 69.3692 74.5284 69.1368 74.5302C69.0049 74.5311 68.8686 74.532 68.7367 74.5328C68.4685 74.5345 68.2034 74.5438 67.9398 74.5531C67.1384 74.578 66.3401 74.6195 65.5434 74.6731C64.9375 74.7164 64.3454 74.7642 63.7502 74.8211C63.4473 74.8473 63.1566 74.8764 62.8568 74.9102C62.5569 74.9439 62.2601 74.9747 61.9634 75.0084C61.3834 75.0773 60.799 75.1477 60.2176 75.2288C59.5167 75.3257 58.8203 75.4257 58.1194 75.5302C57.0234 75.6979 55.9305 75.8808 54.8332 76.0773C53.7646 76.269 52.7006 76.4683 51.6321 76.6707C50.1308 76.9577 48.614 77.1993 47.0913 77.4577C46.6915 77.5249 46.2819 77.506 45.8899 77.4023C45.4979 77.2987 45.1326 77.1125 44.8183 76.8564C44.5039 76.6003 44.2479 76.28 44.0672 75.9171C43.8865 75.5541 43.7854 75.1567 43.7705 74.7516C43.567 69.7524 46.3401 60.6138 46.3401 60.6138C46.4006 59.9043 47.2414 59.3958 47.7328 58.9895C49.1393 57.8637 49.9613 55.8582 50.4383 54.1716C50.776 52.9678 51.0922 51.2504 50.0692 50.2721C49.5081 49.7347 48.7254 49.6231 48.1977 50.2675C47.8083 50.7428 47.1176 53.596 46.076 52.5693C45.8968 52.3701 45.7885 52.1172 45.7683 51.85C45.6745 51.1702 45.9096 50.2671 46.5681 49.9249C47.151 49.6181 47.8706 49.8286 48.4534 49.5051C48.9063 49.2446 48.9707 48.4199 48.7875 47.971C48.4503 47.1489 47.4587 46.8098 46.6005 46.7396C46.2179 46.7115 45.8331 46.7395 45.4585 46.8227C46.1775 45.283 46.8387 43.2558 45.3636 42.685C44.6208 42.3973 43.6982 42.8958 43.2168 43.4474C43.119 43.5604 43.0277 43.6789 42.9433 43.8023C42.6932 43.624 42.3832 43.5509 42.0798 43.5987C40.9066 43.7715 40.26 45.2455 39.8712 46.5193C38.6449 46.4666 37.9611 48.047 37.5703 49.0056C37.1275 50.1099 36.8961 51.2874 36.8881 52.4771C36.8584 53.7427 36.9559 55.0082 37.1792 56.2544C37.2827 56.7916 37.4663 57.3026 37.5985 57.8276C37.7431 58.3994 37.5937 58.9686 37.3896 59.5079C36.5892 61.5723 35.4546 63.5071 34.6072 65.5567C33.6879 67.726 32.9542 69.9693 32.4139 72.2625C31.3733 76.7894 31.1845 81.5835 32.4637 86.0833C34.8824 94.5867 46.8409 91.7122 53.6865 89.2799C56.5484 88.2644 58.5228 87.3212 58.5228 87.3212C58.5228 87.3212 58.5422 87.9818 58.5494 89.1L58.5504 89.2516C58.5526 90.7668 58.4988 102.856 56.5196 111.746L56.4522 111.863C56.4688 111.851 56.5006 111.85 56.521 111.958C56.4107 112.201 56.2329 112.407 56.0087 112.552C55.7845 112.697 55.5234 112.775 55.2565 112.775C50.3803 112.787 29.8517 113.612 33.83 126.854C34.5749 129.342 36.4884 130.928 39.1659 131.857C41.2921 132.601 43.902 132.913 46.7902 132.918L46.8099 132.918C41.171 134.024 39.9115 142.432 46.2185 143.661C48.6461 144.133 50.5558 142.551 52.7304 141.867C53.9733 141.491 55.2687 141.318 56.5668 141.354C57.4139 141.369 58.2589 141.443 59.0958 141.575C68.2591 143.014 77.5512 143.459 86.8102 142.902C93.0704 142.517 99.4491 141.69 105.378 139.556C109.847 137.945 114.745 135.145 116.923 130.844C117.695 129.33 118.088 127.652 118.069 125.953C118.037 121.915 116.152 119.054 113.337 117.049Z" fill="white"/>
<path d="M18.9402 131.76L18.71 131.545" stroke="#CCDDE2" stroke-width="0.585007" stroke-miterlimit="10"/>
<path d="M93.709 108.621L93.0151 105.587C92.7588 104.712 92.5567 103.822 92.41 102.922C91.6835 98.3704 91.1318 92.7128 90.9348 90.5942L93.1121 91.2726L92.3436 89.591C92.3436 89.591 89.7938 81.2082 94.7626 77.4772C91.1439 76.2717 88.2553 76.9222 84.8713 76.1667C83.5678 75.8721 82.1918 75.6158 80.6719 75.3771L79.5721 75.1917C79.5474 78.177 77.4744 78.8678 75.7673 79.2031C71.5647 80.0363 68.631 76.9853 68.735 74.3116C64.0639 74.3948 59.4509 75.0413 54.833 75.856C55.4413 77.6038 56.7328 82.8445 53.2348 89.0737L53.6893 89.0556C56.5512 88.0386 58.5256 87.097 58.5256 87.097C58.5256 87.097 58.5465 87.7575 58.5537 88.8757L58.5547 89.0273C58.5569 90.5335 58.5031 102.632 56.5239 111.52C56.3743 111.81 56.4902 111.453 56.5256 111.774C56.4036 112.022 56.3204 112.287 56.2791 112.559L56.3751 112.166C55.8316 112.956 57.2106 113.901 59.1971 114.368C64.3905 115.601 92.9868 117.635 94.5662 112.312C94.6592 111.995 94.6602 111.658 94.5691 111.339C94.3286 110.419 94.0415 109.512 93.709 108.621Z" fill="#353642"/>
<path d="M56.5633 141.126C55.2667 141.091 53.9729 141.264 52.7314 141.64C50.5553 142.322 48.6426 143.906 46.2181 143.432C39.911 142.203 41.172 133.796 46.8109 132.689C47.3518 132.674 47.8927 132.667 48.4291 132.664L48.4654 132.663C51.0656 132.647 53.5995 132.699 55.6738 131.967C55.4795 132.148 50.443 136.674 56.5633 141.126Z" fill="#3FBDF1"/>
<path d="M79.5677 75.1857L79.5678 75.1933C79.5431 78.1786 77.4701 78.8693 75.763 79.2046C71.5604 80.0379 68.6267 76.9868 68.7307 74.3131" stroke="black" stroke-width="0.585007" stroke-miterlimit="10"/>
<path d="M46.8158 132.689C41.1769 133.795 39.9159 142.203 46.2229 143.432C48.6505 143.906 50.5601 142.322 52.7363 141.64C53.9787 141.264 55.2736 141.09 56.5712 141.126C57.4164 141.143 58.2594 141.219 59.0941 141.353C68.2572 142.796 77.5493 143.244 86.8086 142.69C93.0689 142.304 99.446 141.478 105.375 139.344C109.846 137.731 114.742 134.931 116.92 130.632C117.693 129.118 118.086 127.439 118.066 125.739C118.04 121.697 116.15 118.836 113.341 116.829C112.95 116.552 112.544 116.291 112.124 116.04C107.917 113.587 102.201 112.662 97.4112 112.405C97.1186 112.387 96.8291 112.372 96.5457 112.362C96.1682 112.349 95.7982 112.253 95.4619 112.081C95.1129 111.909 94.8091 111.657 94.5753 111.346C94.3477 111.051 94.1868 110.71 94.1036 110.347L93.7121 108.622L93.0182 105.588L92.4101 102.922C91.6836 98.3704 91.1319 92.7128 90.9349 90.5942" stroke="black" stroke-width="0.585007" stroke-miterlimit="10"/>
<path d="M99.4942 128.275C97.6534 132.558 93.024 131.126 87.9281 128.084C84.7656 126.197 82.0758 125.943 80.4897 126.011C82.7249 125.796 84.6751 125.094 85.2089 122.562C85.6396 120.504 84.4697 118.627 82.4627 118.033C87.2768 117.79 92.2203 118.122 96.1583 121.127C96.1613 121.127 101.338 123.986 99.4942 128.275Z" fill="#3FBDF1"/>
<path d="M82.0903 65.273C82.0732 65.2753 82.0559 65.2754 82.0388 65.2733C82.0873 65.5094 82.1783 65.7618 82.239 66.013C82.2877 66.2028 82.3094 66.3986 82.3034 66.5945C82.2457 67.5116 81.5988 68.0128 80.7171 68.0427C80.7408 68.2529 80.7003 68.4654 80.6009 68.6522C80.5015 68.8389 80.3478 68.9911 80.1602 69.0888C79.689 69.3404 78.9144 69.2893 78.5555 68.8537C78.131 68.3488 78.336 67.7171 78.5885 67.1594C78.6796 66.9633 78.7709 66.7779 78.8456 66.6092C78.9366 66.3995 79.0156 66.1914 79.0854 65.9788C79.3326 65.1922 79.5229 64.3888 79.6548 63.5749C79.8172 62.7526 79.9227 61.92 79.9706 61.0832C79.9132 60.8805 79.9477 60.5863 79.866 60.3747C79.7471 60.048 79.5344 59.7637 79.2546 59.5574C78.6761 59.1368 77.9096 59.169 77.295 58.7972C76.7385 58.4556 76.298 57.9541 76.031 57.3582C75.9787 57.2343 75.9292 57.074 75.8555 56.9351C75.8226 56.8596 75.7729 56.7926 75.7103 56.739C75.433 56.509 75.2751 56.9191 75.1064 57.0793C74.9335 57.2411 74.7281 57.3642 74.5038 57.4404C74.2796 57.5165 74.0418 57.5441 73.8061 57.5211C73.6279 57.4988 73.4542 57.4488 73.2914 57.3729C73.1718 57.3089 73.06 57.2313 72.9581 57.1417C72.837 57.0254 72.6964 56.9314 72.5426 56.864C72.254 56.7583 72.2419 57.2342 72.2021 57.3996C72.1757 57.5425 72.1172 57.6776 72.0311 57.7947C71.945 57.9118 71.8334 58.0078 71.7049 58.0756C71.5497 58.1532 71.3791 58.1952 71.2056 58.1986C71.0035 58.208 70.8013 58.1822 70.6081 58.1221C70.4216 58.068 70.2439 57.987 70.0808 57.8816C70.0515 57.8621 70.0174 57.8513 69.9822 57.8503C69.9471 57.8492 69.9124 57.8581 69.8821 57.8758C69.8517 57.8935 69.827 57.9194 69.8106 57.9505C69.7942 57.9815 69.7869 58.0166 69.7894 58.0516C69.8556 59.618 68.3939 60.173 67.7933 60.3375C67.6079 62.9246 68.2565 65.503 69.6441 67.6945C69.5954 68.0132 69.4676 68.3146 69.2724 68.5712C68.2846 68.8261 67.1403 68.5637 66.706 67.7134C66.2456 66.8072 66.2996 65.5476 67.0015 64.8946C66.5116 64.822 66.3705 64.1001 66.6481 63.674C66.6721 63.6329 66.6825 63.6086 66.6671 63.5693C66.6055 63.4045 65.8848 63.2713 65.6874 63.212C65.4057 63.1135 65.1509 62.9505 64.9433 62.7361C64.7356 62.5218 64.5809 62.2619 64.4915 61.9771C64.0659 60.6055 65.1141 59.1319 66.4332 58.7916C66.0363 58.1001 65.516 57.5428 65.2911 56.7427C65.0662 55.9425 65.1851 55.1083 65.7933 54.4983C66.0408 54.2598 66.344 54.087 66.6752 53.9954C67.0064 53.9038 67.3553 53.8964 67.6901 53.9739C67.886 54.1143 68.0597 54.2832 68.2055 54.4751C68.1158 54.3442 68.0435 54.202 67.9907 54.0522C68.4401 54.2016 68.8352 54.4806 69.1263 54.8541C68.6046 54.0846 68.7902 53.0288 69.3661 52.3432C70.0624 51.5174 71.4401 51.3282 72.4035 51.7432C72.4732 51.7741 72.5408 51.8096 72.6057 51.8495C72.6974 51.9625 72.7905 52.0741 72.8836 52.1811C72.8936 52.1519 72.9056 52.1235 72.9195 52.096C73.1158 52.2952 73.3018 52.5044 73.4766 52.7227C74.0894 50.9428 76.5698 50.9223 77.8865 51.8396C78.1966 52.0579 78.4512 52.3459 78.6299 52.6804C78.6982 52.975 78.6945 53.2817 78.619 53.5745C78.5405 53.8553 78.6055 54.0671 78.7862 54.1265C78.922 54.1586 79.0649 54.1393 79.1874 54.0724C79.6663 53.8526 80.0616 53.5849 80.6196 53.6419C82.4391 53.8226 83.7802 56.1778 82.7128 57.7273C82.6496 57.8235 82.5776 57.9137 82.4979 57.9969C82.3474 58.1494 82.0076 58.3289 81.9332 58.546C81.9311 58.5514 81.9312 58.5574 81.9333 58.5627C81.7999 59.0181 82.8067 59.1132 83.0756 59.2281C85.458 60.2144 84.988 65.1027 82.0903 65.273Z" fill="#3FBDF1"/>
<path d="M40.7048 53.2192C40.1319 52.0197 40.5346 50.3306 41.1704 49.0521C41.6564 48.0595 41.2538 46.4756 39.995 46.3064C38.6877 46.1391 37.968 47.7909 37.5668 48.7875C37.1232 49.892 36.8912 51.0702 36.8831 52.2604C36.8578 53.5264 36.9589 54.7917 37.1848 56.0377C37.2882 56.5734 37.4719 57.0859 37.6025 57.6094C37.7471 58.1812 37.5978 58.7519 37.3937 59.2897C36.5933 61.3541 35.4602 63.2889 34.6112 65.3385C33.6934 67.5082 32.9602 69.7514 32.4194 72.0443C31.3788 76.5712 31.1886 81.3653 32.4677 85.8651C34.8865 94.3685 46.8464 91.494 53.6905 89.0617C56.5524 88.0447 58.5268 87.103 58.5268 87.103C58.5268 87.103 58.5478 87.7636 58.555 88.8818C58.5553 88.9333 58.5557 88.9864 58.556 89.0333C58.5941 93.529 58.4867 104.826 56.5935 111.55C56.5116 111.84 56.3372 112.095 56.0968 112.277C55.8565 112.459 55.5634 112.557 55.262 112.557C50.3858 112.569 29.8588 113.394 33.8355 126.629C35.1797 131.099 40.2828 132.677 46.7896 132.691L46.8184 132.691C47.3472 132.687 47.8882 132.684 48.4366 132.665L48.4729 132.665C50.8893 132.566 53.2984 132.332 55.6889 131.965C64.1574 130.717 73.1597 128.11 78.9739 126.236C79.3093 126.145 79.6523 126.085 79.9986 126.058C80.1425 126.04 80.3015 126.027 80.4802 126.018L80.4954 126.018C82.0784 125.944 84.7682 126.198 87.9338 128.092C93.0297 131.133 97.6606 132.566 99.4998 128.282C101.339 123.999 96.1609 121.127 96.1609 121.127C92.2229 118.122 87.2794 117.795 82.4653 118.033C80.9792 118.108 79.5012 118.242 78.073 118.365C72.3574 118.857 66.6408 119.349 60.9232 119.839L53.4328 120.494" stroke="black" stroke-width="0.585007" stroke-miterlimit="10"/>
<path d="M42.738 52.4029C42.738 52.4029 41.9106 50.7581 42.9046 48.1711C43.3145 47.1078 43.7865 45.8213 43.582 44.6604C43.5176 44.2305 43.2865 43.8433 42.9387 43.5826C42.6887 43.4041 42.3784 43.3315 42.0751 43.3806C40.9034 43.5518 40.2553 45.0273 39.8665 46.2997" stroke="black" stroke-width="0.585007" stroke-miterlimit="10"/>
<path d="M44.4379 51.4343C44.4379 51.4343 43.6536 50.1256 44.6982 48.0989C44.8733 47.7614 45.1699 47.2216 45.4462 46.6076C46.1667 45.068 46.8264 43.0408 45.3513 42.4684C44.6085 42.1807 43.6858 42.6792 43.2045 43.2323C43.1067 43.3448 43.0154 43.4628 42.931 43.5857" stroke="black" stroke-width="0.585007" stroke-miterlimit="10"/>
<path d="M45.4508 46.5985C45.8252 46.5145 46.2101 46.4865 46.5928 46.5153C47.4509 46.5855 48.4425 46.9231 48.7812 47.7468C48.9645 48.2002 48.9046 49.0204 48.4456 49.2794C47.8628 49.6044 47.1447 49.3969 46.5618 49.7007C45.9109 50.0413 45.6606 50.9445 45.7605 51.6258C45.7808 51.8929 45.889 52.1459 46.0682 52.3451C47.1083 53.3718 47.799 50.5155 48.1884 50.0433C48.7176 49.3989 49.4987 49.509 50.0598 50.0463C51.0844 51.0247 50.7667 52.7405 50.4275 53.9459C49.9519 55.6324 49.13 57.6379 47.731 58.7622C47.2305 59.1625 46.3974 59.68 46.3383 60.3896C46.3383 60.3896 43.5652 69.522 43.7672 74.5258C43.7821 74.9308 43.8833 75.328 44.0639 75.6909C44.2445 76.0537 44.5004 76.3739 44.8145 76.63C45.1286 76.8861 45.4938 77.0722 45.8856 77.176C46.2774 77.2798 46.6868 77.2989 47.0865 77.2319C48.6002 76.9751 50.123 76.7335 51.6274 76.4449C52.6959 76.2426 53.7598 76.0432 54.8284 75.8515C59.5795 75.0116 64.3242 74.3522 69.132 74.2999C69.3643 74.2988 69.5885 74.2137 69.763 74.0602C69.9374 73.9067 70.0505 73.6953 70.0812 73.4649L70.1679 72.8052L70.7425 69.1026" stroke="black" stroke-width="0.585007" stroke-miterlimit="10"/>
<path d="M107.334 53.5906C107.892 52.3839 107.467 50.7001 106.815 49.4299C106.311 48.4437 106.698 46.8547 107.955 46.6693C107.999 46.669 108.043 46.6611 108.083 46.6609C109.321 46.5923 110.028 48.1954 110.427 49.1505C110.891 50.2868 111.134 51.5009 111.144 52.7281C111.162 53.7625 111.093 54.7966 110.935 55.8191C110.801 56.6686 110.357 57.514 110.428 58.3863C110.484 59.1194 110.922 59.8105 111.23 60.4692C112.562 63.2897 114.118 66.0117 115.192 68.9294C115.601 70.0219 115.923 71.1452 116.154 72.2886C116.973 76.4423 116.714 80.7364 115.401 84.7614C114.685 86.939 113.414 89.0868 111.571 90.4928C111.38 90.6385 111.185 90.7761 110.984 90.9057C108.594 92.4758 105.515 92.9564 102.707 92.9139C99.7248 92.8695 96.7207 92.2797 93.8532 91.4845C93.3522 91.3443 92.8532 91.196 92.3562 91.0396C91.8339 90.8778 91.3161 90.7129 90.7983 90.5405C90.2561 90.3561 89.714 90.1702 89.1763 89.9737" stroke="black" stroke-width="0.585007" stroke-miterlimit="10"/>
<path d="M108.083 46.6609C107.678 45.3937 107.005 43.9267 105.837 43.7705C105.533 43.7254 105.224 43.802 104.976 43.9837C104.632 44.2489 104.406 44.639 104.347 45.0697C104.157 46.2331 104.646 47.5119 105.07 48.5714C106.097 51.1408 105.289 52.8023 105.289 52.8023" stroke="black" stroke-width="0.585007" stroke-miterlimit="10"/>
<path d="M104.976 43.9837C104.89 43.86 104.794 43.7454 104.698 43.6324C104.205 43.0871 103.281 42.6006 102.54 42.8978C101.074 43.4876 101.76 45.5076 102.5 47.0379C102.792 47.6421 103.095 48.1841 103.267 48.5194C104.341 50.5354 103.569 51.8512 103.569 51.8512" stroke="black" stroke-width="0.585007" stroke-miterlimit="10"/>
<path d="M102.5 47.0379C102.125 46.959 101.74 46.9355 101.357 46.968C100.5 47.0508 99.5128 47.4011 99.1848 48.2291C99.0074 48.6848 99.0779 49.5041 99.5402 49.7572C100.127 50.0747 100.842 49.8564 101.429 50.1542C102.085 50.4863 102.346 51.3863 102.255 52.0687C102.239 52.3362 102.134 52.5905 101.957 52.7919C100.93 53.832 100.203 50.9849 99.8072 50.5177C99.2697 49.8787 98.4901 50.0004 97.936 50.5449C96.8443 51.6127 97.3354 53.7461 97.8043 55.0265C98.3149 56.4249 98.973 57.8981 100.018 58.9824C101.757 60.7895 101.964 63.6672 102.436 65.9993C102.63 66.9648 102.817 67.9364 102.967 68.9098C103.267 70.7944 103.446 72.6949 103.307 74.6021C103.272 75.1256 103.129 75.6363 102.887 76.102C102.645 76.5676 102.31 76.9783 101.902 77.3082C101.493 77.6381 101.022 77.8801 100.516 78.019C100.01 78.1579 99.4803 78.1907 98.961 78.1154C92.1782 77.1212 79.0501 75.0981 79.0501 75.0981C78.9427 75.0803 78.845 75.0252 78.7741 74.9426C78.7031 74.8599 78.6636 74.7549 78.6623 74.646L78.5613 68.8597" stroke="black" stroke-width="0.585007" stroke-miterlimit="10"/>
<path d="M67.7871 60.3329C67.5291 63.3152 68.5857 66.6784 70.5396 68.8872C74.1847 73.002 77.2066 68.8442 77.2066 68.8442" stroke="black" stroke-width="0.585007" stroke-miterlimit="10"/>
<path d="M80.0103 61.1784C79.9029 60.9821 79.9627 60.6256 79.8702 60.3762C79.7507 60.0494 79.5381 59.7648 79.2588 59.5573C78.6773 59.1383 77.9122 59.169 77.2992 58.8002C76.7423 58.4568 76.3011 57.9546 76.0322 57.3582C75.9461 57.1678 75.8775 56.8774 75.7145 56.7405C75.4357 56.5105 75.2777 56.9191 75.1106 57.0808C74.872 57.306 74.5713 57.4544 74.2475 57.5068C73.9236 57.5591 73.5915 57.513 73.2941 57.3744C73.0205 57.2413 72.8293 56.9713 72.5438 56.8655C72.2582 56.7598 72.2431 57.2342 72.2017 57.4011C72.1755 57.5439 72.1175 57.679 72.032 57.7963C71.9464 57.9135 71.8355 58.0101 71.7076 58.0786C71.2076 58.3289 70.5217 58.1711 70.0834 57.8815C70.054 57.8615 70.0196 57.8503 69.9841 57.8491C69.9486 57.8479 69.9134 57.8568 69.8828 57.8748C69.8521 57.8927 69.8272 57.919 69.8108 57.9506C69.7945 57.9822 69.7875 58.0177 69.7906 58.0531C69.8715 60.0225 67.5403 60.3906 67.5403 60.3906" stroke="black" stroke-width="0.585007" stroke-miterlimit="10"/>
<path d="M71.1078 64.6468C72.2743 64.6393 73.2139 63.6875 73.2064 62.5209C73.1989 61.3544 72.2471 60.4148 71.0805 60.4223C69.9139 60.4298 68.9744 61.3816 68.9819 62.5482C68.9894 63.7147 69.9412 64.6543 71.1078 64.6468Z" stroke="black" stroke-width="0.585007" stroke-miterlimit="10"/>
<path d="M76.5809 64.4236C77.7475 64.4161 78.6871 63.4643 78.6795 62.2977C78.672 61.1312 77.7202 60.1916 76.5537 60.1991C75.3871 60.2066 74.4475 61.1584 74.455 62.325C74.4626 63.4915 75.4144 64.4311 76.5809 64.4236Z" stroke="black" stroke-width="0.585007" stroke-miterlimit="10"/>
<path d="M70.2119 62.7524C70.2119 62.7524 71.0698 63.7242 71.9393 62.7413" stroke="black" stroke-width="0.585007" stroke-miterlimit="10"/>
<path d="M75.7095 62.7169C75.7095 62.7169 76.5673 63.6887 77.4384 62.7058" stroke="black" stroke-width="0.585007" stroke-miterlimit="10"/>
<path d="M74.1164 67.3868C74.5273 67.3841 74.8582 67.0489 74.8556 66.638C74.8529 66.2271 74.5177 65.8961 74.1068 65.8988C73.6959 65.9014 73.3649 66.2367 73.3676 66.6476C73.3702 67.0585 73.7055 67.3894 74.1164 67.3868Z" stroke="black" stroke-width="0.585007" stroke-miterlimit="10"/>
<path d="M73.2063 62.521C73.2063 62.521 73.68 61.7375 74.4551 62.325" stroke="black" stroke-width="0.585007" stroke-miterlimit="10"/>
<path d="M72.2147 59.3921C72.2147 59.3921 70.0114 57.7304 68.1836 59.3227" stroke="black" stroke-width="0.585007" stroke-miterlimit="10"/>
<path d="M78.6244 58.4719C78.6244 58.4719 76.0138 57.5796 74.7695 59.656" stroke="black" stroke-width="0.585007" stroke-miterlimit="10"/>
<path d="M69.5738 67.6222C69.571 67.9734 69.4578 68.3148 69.2502 68.5982C69.0427 68.8815 68.7512 69.0924 68.4172 69.201C67.3374 69.5277 66.1866 68.7229 65.7109 67.788C65.5376 67.465 65.457 67.1002 65.4782 66.7342C65.4994 66.3682 65.6214 66.0152 65.8308 65.7143C65.8495 65.6842 65.8619 65.6506 65.8671 65.6156C65.8724 65.5806 65.8705 65.5448 65.8614 65.5106C65.8524 65.4763 65.8365 65.4442 65.8147 65.4163C65.7929 65.3884 65.7656 65.3652 65.7345 65.3482C65.5234 65.2231 65.3483 65.0453 65.2263 64.8323C65.1044 64.6193 65.0398 64.3783 65.0387 64.1329C65.0386 64.031 65.0491 63.9294 65.0701 63.8296C65.0768 63.7928 65.0757 63.7549 65.0669 63.7185C65.0581 63.6821 65.0419 63.6479 65.0192 63.6181C64.9964 63.5883 64.9678 63.5636 64.935 63.5455C64.9022 63.5274 64.8659 63.5163 64.8286 63.513C64.7183 63.5037 64.6088 63.4861 64.501 63.4606C64.1988 63.3555 63.9254 63.1813 63.7027 62.9517C63.4799 62.7221 63.3139 62.4436 63.2181 62.1384C62.754 60.6625 63.8878 59.0762 65.3083 58.7109C64.8792 57.9682 64.3132 57.3702 64.0818 56.5065C63.8505 55.6428 63.975 54.7479 64.6269 54.0982C65.6433 53.09 67.3802 53.391 68.2116 54.4842C67.6501 53.6544 67.8504 52.5166 68.4715 51.7822C69.2234 50.8955 70.6995 50.6935 71.7373 51.1353C72.2312 51.3488 72.5507 51.7953 72.8897 52.1886C73.5502 50.2811 76.2109 50.2518 77.6325 51.2397C78.3723 51.7607 78.8543 52.7108 78.625 53.582C78.5036 54.0238 78.7341 54.2859 79.1934 54.0799C79.6528 53.8739 80.0677 53.5924 80.6257 53.6494C82.5574 53.8415 83.9458 56.4768 82.504 58.0044C82.3535 58.166 82.0136 58.3364 81.9393 58.5536C81.777 59.0092 82.8036 59.1208 83.0771 59.2357C85.4807 60.2263 84.9868 65.1664 82.0555 65.2853C82.146 65.7045 82.3491 66.1683 82.32 66.6019C82.2623 67.519 81.6155 68.0202 80.7338 68.0547C80.7568 68.2643 80.7159 68.4758 80.6165 68.6617C80.5171 68.8476 80.3638 68.9991 80.1768 69.0963C79.7057 69.3509 78.931 69.2968 78.5721 68.8612C77.9979 68.1769 78.577 67.2716 78.8607 66.6121C79.2787 65.6472 79.4811 64.6079 79.6669 63.5763C79.8375 62.7214 79.9454 61.8552 79.9896 60.9846L79.9894 60.9482" stroke="black" stroke-width="0.585007" stroke-miterlimit="10"/>
<path d="M8.42139 131.828L39.2156 131.629" stroke="black" stroke-width="0.585007" stroke-miterlimit="10"/>
<path d="M116.704 131.129L144.793 130.948" stroke="black" stroke-width="0.585007" stroke-miterlimit="10"/>
</svg>
