<svg width="18" height="18" viewBox="0 0 18 18" fill="none" xmlns="http://www.w3.org/2000/svg">
<path d="M2.8905 7.8559C3.18645 6.92 3.67838 6.05949 4.33007 5.32871C4.44028 5.20514 4.61413 5.16022 4.7704 5.21496L6.34265 5.76572C6.76891 5.91495 7.23543 5.69037 7.38466 5.26411C7.39934 5.2222 7.41057 5.17916 7.41824 5.13549L7.7065 3.4932C7.73516 3.32991 7.85959 3.20009 8.02151 3.16453C8.4953 3.06049 8.98141 3.00599 9.47423 3.00281C9.96675 2.99963 10.4532 3.04778 10.928 3.14559C11.0904 3.17902 11.2165 3.30714 11.2473 3.46999L11.5576 5.1087C11.6415 5.55246 12.0692 5.8442 12.513 5.76031C12.5566 5.75206 12.5995 5.74027 12.6412 5.72508L14.2062 5.15405C14.3618 5.0973 14.5362 5.13996 14.648 5.26211C15.3091 5.98441 15.8121 6.8385 16.1201 7.7705C16.172 7.92773 16.124 8.10078 15.9985 8.20876L14.734 9.29644C14.3917 9.59098 14.3529 10.1073 14.6474 10.4497C14.6764 10.4833 14.708 10.5146 14.742 10.5431L16.0205 11.6144C16.1474 11.7207 16.1976 11.8931 16.1477 12.051C15.8518 12.9869 15.3598 13.8474 14.7081 14.5782C14.5979 14.7018 14.4241 14.7467 14.2678 14.692L12.6956 14.1412C12.2693 13.992 11.8028 14.2165 11.6535 14.6428C11.6389 14.6847 11.6276 14.7278 11.6199 14.7716L11.3309 16.4141C11.3021 16.5773 11.1777 16.707 11.0158 16.7426C10.5423 16.8465 10.0565 16.9009 9.56397 16.9041C9.07115 16.9073 8.58437 16.8591 8.10929 16.7612C7.94691 16.7277 7.82082 16.5995 7.79006 16.4366L7.48063 14.7982C7.39674 14.3545 6.96899 14.0627 6.52523 14.1466C6.48159 14.1549 6.4387 14.1666 6.39705 14.1818L4.83197 14.7529C4.67642 14.8096 4.502 14.767 4.39021 14.6448C3.72914 13.9225 3.22614 13.0684 2.91813 12.1364C2.86617 11.9792 2.91418 11.8061 3.03972 11.6982L4.30418 10.6105C4.64655 10.3159 4.68532 9.79963 4.39079 9.45726C4.36183 9.4236 4.33017 9.39235 4.29615 9.36384L3.01774 8.29256C2.89081 8.1862 2.84057 8.01379 2.8905 7.8559ZM7.88365 9.96402C7.88948 10.8672 8.62643 11.5947 9.52966 11.5889C10.4329 11.5831 11.1604 10.8461 11.1545 9.9429C11.1487 9.03967 10.4118 8.31218 9.50854 8.31801C8.60531 8.32384 7.87782 9.06078 7.88365 9.96402Z" fill="#BDC2F7"/>
</svg>
